<!DOCTYPE svg PUBLIC "-//W3C//DTD SVG 1.1//EN" "http://www.w3.org/Graphics/SVG/1.1/DTD/svg11.dtd"><svg t="1536293508300" class="icon" style="" viewBox="0 0 1024 1024" version="1.1" xmlns="http://www.w3.org/2000/svg" p-id="4811" xmlns:xlink="http://www.w3.org/1999/xlink" width="32" height="32"><defs><style type="text/css"></style></defs><path d="M739.446 576.922c0 2.094-0.358 4.104-1.016 5.97l0.544 0c-7.297 113.849-98.356 204.908-212.205 212.205l0 65.456 118.257 0c9.731 0 17.62 7.867 17.62 17.723 0 9.788-7.902 17.723-17.62 17.723l-271.96 0c-9.731 0-17.62-7.867-17.62-17.723 0-9.788 7.902-17.723 17.62-17.723l118.257 0 0-65.912c-111.077-10.01-199.127-99.877-206.297-211.75l0.542 0c-0.656-1.863-1.013-3.871-1.013-5.97l0-76.675c0-9.823 7.867-17.786 17.723-17.786 9.788 0 17.723 7.893 17.723 17.786l0 76.675c0 2.094-0.358 4.104-1.016 5.97l1.576 0c7.542 99.138 90.371 177.231 191.44 177.231s183.899-78.093 191.44-177.231l1.573 0c-0.656-1.863-1.013-3.871-1.013-5.97l0-76.675c0-9.823 7.867-17.786 17.723-17.786 9.788 0 17.723 7.893 17.723 17.786L739.447 576.922zM509.046 712.862c81.586 0 147.692-66.076 147.692-147.585L656.738 275.585c0-81.348-66.124-147.585-147.692-147.585-81.586 0-147.692 66.076-147.692 147.585l0 289.691C361.354 646.624 427.478 712.862 509.046 712.862z" p-id="4812" fill="#8a8a8a"></path></svg>